<?xml version="1.0" encoding="utf-8"?>
<svg xmlns="http://www.w3.org/2000/svg" xmlns:xlink="http://www.w3.org/1999/xlink" width="600" height="400" viewBox="0 0 2400 1600">
<defs>
  <clipPath id="clip630">
    <rect x="0" y="0" width="2400" height="1600"/>
  </clipPath>
</defs>
<path clip-path="url(#clip630)" d="M0 1600 L2400 1600 L2400 0 L0 0  Z" fill="#ffffff" fill-rule="evenodd" fill-opacity="1"/>
<defs>
  <clipPath id="clip631">
    <rect x="193" y="47" width="2160" height="1440"/>
  </clipPath>
</defs>
<path clip-path="url(#clip630)" d="M193.936 1486.45 L2352.76 1486.45 L2352.76 47.2441 L193.936 47.2441  Z" fill="#ffffff" fill-rule="evenodd" fill-opacity="1"/>
<polyline clip-path="url(#clip631)" style="stroke:#000000; stroke-linecap:round; stroke-linejoin:round; stroke-width:2; stroke-opacity:0.1; fill:none" points="255.035,1486.45 255.035,47.2441 "/>
<polyline clip-path="url(#clip631)" style="stroke:#000000; stroke-linecap:round; stroke-linejoin:round; stroke-width:2; stroke-opacity:0.1; fill:none" points="764.19,1486.45 764.19,47.2441 "/>
<polyline clip-path="url(#clip631)" style="stroke:#000000; stroke-linecap:round; stroke-linejoin:round; stroke-width:2; stroke-opacity:0.1; fill:none" points="1273.35,1486.45 1273.35,47.2441 "/>
<polyline clip-path="url(#clip631)" style="stroke:#000000; stroke-linecap:round; stroke-linejoin:round; stroke-width:2; stroke-opacity:0.1; fill:none" points="1782.5,1486.45 1782.5,47.2441 "/>
<polyline clip-path="url(#clip631)" style="stroke:#000000; stroke-linecap:round; stroke-linejoin:round; stroke-width:2; stroke-opacity:0.1; fill:none" points="2291.66,1486.45 2291.66,47.2441 "/>
<polyline clip-path="url(#clip631)" style="stroke:#000000; stroke-linecap:round; stroke-linejoin:round; stroke-width:2; stroke-opacity:0.1; fill:none" points="193.936,1334.22 2352.76,1334.22 "/>
<polyline clip-path="url(#clip631)" style="stroke:#000000; stroke-linecap:round; stroke-linejoin:round; stroke-width:2; stroke-opacity:0.1; fill:none" points="193.936,1145.3 2352.76,1145.3 "/>
<polyline clip-path="url(#clip631)" style="stroke:#000000; stroke-linecap:round; stroke-linejoin:round; stroke-width:2; stroke-opacity:0.1; fill:none" points="193.936,956.372 2352.76,956.372 "/>
<polyline clip-path="url(#clip631)" style="stroke:#000000; stroke-linecap:round; stroke-linejoin:round; stroke-width:2; stroke-opacity:0.1; fill:none" points="193.936,767.448 2352.76,767.448 "/>
<polyline clip-path="url(#clip631)" style="stroke:#000000; stroke-linecap:round; stroke-linejoin:round; stroke-width:2; stroke-opacity:0.1; fill:none" points="193.936,578.524 2352.76,578.524 "/>
<polyline clip-path="url(#clip631)" style="stroke:#000000; stroke-linecap:round; stroke-linejoin:round; stroke-width:2; stroke-opacity:0.1; fill:none" points="193.936,389.6 2352.76,389.6 "/>
<polyline clip-path="url(#clip631)" style="stroke:#000000; stroke-linecap:round; stroke-linejoin:round; stroke-width:2; stroke-opacity:0.1; fill:none" points="193.936,200.676 2352.76,200.676 "/>
<polyline clip-path="url(#clip630)" style="stroke:#000000; stroke-linecap:round; stroke-linejoin:round; stroke-width:4; stroke-opacity:1; fill:none" points="193.936,1486.45 2352.76,1486.45 "/>
<polyline clip-path="url(#clip630)" style="stroke:#000000; stroke-linecap:round; stroke-linejoin:round; stroke-width:4; stroke-opacity:1; fill:none" points="255.035,1486.45 255.035,1467.55 "/>
<polyline clip-path="url(#clip630)" style="stroke:#000000; stroke-linecap:round; stroke-linejoin:round; stroke-width:4; stroke-opacity:1; fill:none" points="764.19,1486.45 764.19,1467.55 "/>
<polyline clip-path="url(#clip630)" style="stroke:#000000; stroke-linecap:round; stroke-linejoin:round; stroke-width:4; stroke-opacity:1; fill:none" points="1273.35,1486.45 1273.35,1467.55 "/>
<polyline clip-path="url(#clip630)" style="stroke:#000000; stroke-linecap:round; stroke-linejoin:round; stroke-width:4; stroke-opacity:1; fill:none" points="1782.5,1486.45 1782.5,1467.55 "/>
<polyline clip-path="url(#clip630)" style="stroke:#000000; stroke-linecap:round; stroke-linejoin:round; stroke-width:4; stroke-opacity:1; fill:none" points="2291.66,1486.45 2291.66,1467.55 "/>
<path clip-path="url(#clip630)" d="M232.419 1517.37 Q228.808 1517.37 226.979 1520.93 Q225.174 1524.47 225.174 1531.6 Q225.174 1538.71 226.979 1542.27 Q228.808 1545.82 232.419 1545.82 Q236.053 1545.82 237.859 1542.27 Q239.688 1538.71 239.688 1531.6 Q239.688 1524.47 237.859 1520.93 Q236.053 1517.37 232.419 1517.37 M232.419 1513.66 Q238.229 1513.66 241.285 1518.27 Q244.363 1522.85 244.363 1531.6 Q244.363 1540.33 241.285 1544.94 Q238.229 1549.52 232.419 1549.52 Q226.609 1549.52 223.53 1544.94 Q220.475 1540.33 220.475 1531.6 Q220.475 1522.85 223.53 1518.27 Q226.609 1513.66 232.419 1513.66 Z" fill="#000000" fill-rule="nonzero" fill-opacity="1" /><path clip-path="url(#clip630)" d="M252.581 1542.97 L257.465 1542.97 L257.465 1548.85 L252.581 1548.85 L252.581 1542.97 Z" fill="#000000" fill-rule="nonzero" fill-opacity="1" /><path clip-path="url(#clip630)" d="M277.65 1517.37 Q274.039 1517.37 272.211 1520.93 Q270.405 1524.47 270.405 1531.6 Q270.405 1538.71 272.211 1542.27 Q274.039 1545.82 277.65 1545.82 Q281.285 1545.82 283.09 1542.27 Q284.919 1538.71 284.919 1531.6 Q284.919 1524.47 283.09 1520.93 Q281.285 1517.37 277.65 1517.37 M277.65 1513.66 Q283.46 1513.66 286.516 1518.27 Q289.595 1522.85 289.595 1531.6 Q289.595 1540.33 286.516 1544.94 Q283.46 1549.52 277.65 1549.52 Q271.84 1549.52 268.761 1544.94 Q265.706 1540.33 265.706 1531.6 Q265.706 1522.85 268.761 1518.27 Q271.84 1513.66 277.65 1513.66 Z" fill="#000000" fill-rule="nonzero" fill-opacity="1" /><path clip-path="url(#clip630)" d="M735.927 1544.91 L752.246 1544.91 L752.246 1548.85 L730.302 1548.85 L730.302 1544.91 Q732.964 1542.16 737.547 1537.53 Q742.153 1532.88 743.334 1531.53 Q745.579 1529.01 746.459 1527.27 Q747.362 1525.51 747.362 1523.82 Q747.362 1521.07 745.417 1519.33 Q743.496 1517.6 740.394 1517.6 Q738.195 1517.6 735.741 1518.36 Q733.311 1519.13 730.533 1520.68 L730.533 1515.95 Q733.357 1514.82 735.811 1514.24 Q738.265 1513.66 740.302 1513.66 Q745.672 1513.66 748.866 1516.35 Q752.061 1519.03 752.061 1523.52 Q752.061 1525.65 751.251 1527.57 Q750.464 1529.47 748.357 1532.07 Q747.778 1532.74 744.677 1535.95 Q741.575 1539.15 735.927 1544.91 Z" fill="#000000" fill-rule="nonzero" fill-opacity="1" /><path clip-path="url(#clip630)" d="M762.061 1542.97 L766.945 1542.97 L766.945 1548.85 L762.061 1548.85 L762.061 1542.97 Z" fill="#000000" fill-rule="nonzero" fill-opacity="1" /><path clip-path="url(#clip630)" d="M777.176 1514.29 L795.533 1514.29 L795.533 1518.22 L781.459 1518.22 L781.459 1526.7 Q782.477 1526.35 783.496 1526.19 Q784.514 1526 785.533 1526 Q791.32 1526 794.699 1529.17 Q798.079 1532.34 798.079 1537.76 Q798.079 1543.34 794.607 1546.44 Q791.135 1549.52 784.815 1549.52 Q782.639 1549.52 780.371 1549.15 Q778.125 1548.78 775.718 1548.04 L775.718 1543.34 Q777.801 1544.47 780.024 1545.03 Q782.246 1545.58 784.723 1545.58 Q788.727 1545.58 791.065 1543.48 Q793.403 1541.37 793.403 1537.76 Q793.403 1534.15 791.065 1532.04 Q788.727 1529.94 784.723 1529.94 Q782.848 1529.94 780.973 1530.35 Q779.121 1530.77 777.176 1531.65 L777.176 1514.29 Z" fill="#000000" fill-rule="nonzero" fill-opacity="1" /><path clip-path="url(#clip630)" d="M1240.51 1514.29 L1258.87 1514.29 L1258.87 1518.22 L1244.79 1518.22 L1244.79 1526.7 Q1245.81 1526.35 1246.83 1526.19 Q1247.85 1526 1248.87 1526 Q1254.65 1526 1258.03 1529.17 Q1261.41 1532.34 1261.41 1537.76 Q1261.41 1543.34 1257.94 1546.44 Q1254.47 1549.52 1248.15 1549.52 Q1245.97 1549.52 1243.7 1549.15 Q1241.46 1548.78 1239.05 1548.04 L1239.05 1543.34 Q1241.14 1544.47 1243.36 1545.03 Q1245.58 1545.58 1248.06 1545.58 Q1252.06 1545.58 1254.4 1543.48 Q1256.74 1541.37 1256.74 1537.76 Q1256.74 1534.15 1254.4 1532.04 Q1252.06 1529.94 1248.06 1529.94 Q1246.18 1529.94 1244.31 1530.35 Q1242.45 1530.77 1240.51 1531.65 L1240.51 1514.29 Z" fill="#000000" fill-rule="nonzero" fill-opacity="1" /><path clip-path="url(#clip630)" d="M1270.63 1542.97 L1275.51 1542.97 L1275.51 1548.85 L1270.63 1548.85 L1270.63 1542.97 Z" fill="#000000" fill-rule="nonzero" fill-opacity="1" /><path clip-path="url(#clip630)" d="M1295.7 1517.37 Q1292.08 1517.37 1290.26 1520.93 Q1288.45 1524.47 1288.45 1531.6 Q1288.45 1538.71 1290.26 1542.27 Q1292.08 1545.82 1295.7 1545.82 Q1299.33 1545.82 1301.14 1542.27 Q1302.96 1538.71 1302.96 1531.6 Q1302.96 1524.47 1301.14 1520.93 Q1299.33 1517.37 1295.7 1517.37 M1295.7 1513.66 Q1301.51 1513.66 1304.56 1518.27 Q1307.64 1522.85 1307.64 1531.6 Q1307.64 1540.33 1304.56 1544.94 Q1301.51 1549.52 1295.7 1549.52 Q1289.89 1549.52 1286.81 1544.94 Q1283.75 1540.33 1283.75 1531.6 Q1283.75 1522.85 1286.81 1518.27 Q1289.89 1513.66 1295.7 1513.66 Z" fill="#000000" fill-rule="nonzero" fill-opacity="1" /><path clip-path="url(#clip630)" d="M1748.82 1514.29 L1771.04 1514.29 L1771.04 1516.28 L1758.5 1548.85 L1753.61 1548.85 L1765.42 1518.22 L1748.82 1518.22 L1748.82 1514.29 Z" fill="#000000" fill-rule="nonzero" fill-opacity="1" /><path clip-path="url(#clip630)" d="M1780.16 1542.97 L1785.05 1542.97 L1785.05 1548.85 L1780.16 1548.85 L1780.16 1542.97 Z" fill="#000000" fill-rule="nonzero" fill-opacity="1" /><path clip-path="url(#clip630)" d="M1795.28 1514.29 L1813.64 1514.29 L1813.64 1518.22 L1799.56 1518.22 L1799.56 1526.7 Q1800.58 1526.35 1801.6 1526.19 Q1802.62 1526 1803.64 1526 Q1809.42 1526 1812.8 1529.17 Q1816.18 1532.34 1816.18 1537.76 Q1816.18 1543.34 1812.71 1546.44 Q1809.24 1549.52 1802.92 1549.52 Q1800.74 1549.52 1798.47 1549.15 Q1796.23 1548.78 1793.82 1548.04 L1793.82 1543.34 Q1795.9 1544.47 1798.13 1545.03 Q1800.35 1545.58 1802.83 1545.58 Q1806.83 1545.58 1809.17 1543.48 Q1811.51 1541.37 1811.51 1537.76 Q1811.51 1534.15 1809.17 1532.04 Q1806.83 1529.94 1802.83 1529.94 Q1800.95 1529.94 1799.08 1530.35 Q1797.22 1530.77 1795.28 1531.65 L1795.28 1514.29 Z" fill="#000000" fill-rule="nonzero" fill-opacity="1" /><path clip-path="url(#clip630)" d="M2243.73 1544.91 L2251.37 1544.91 L2251.37 1518.55 L2243.06 1520.21 L2243.06 1515.95 L2251.32 1514.29 L2256 1514.29 L2256 1544.91 L2263.64 1544.91 L2263.64 1548.85 L2243.73 1548.85 L2243.73 1544.91 Z" fill="#000000" fill-rule="nonzero" fill-opacity="1" /><path clip-path="url(#clip630)" d="M2283.08 1517.37 Q2279.47 1517.37 2277.64 1520.93 Q2275.84 1524.47 2275.84 1531.6 Q2275.84 1538.71 2277.64 1542.27 Q2279.47 1545.82 2283.08 1545.82 Q2286.72 1545.82 2288.52 1542.27 Q2290.35 1538.71 2290.35 1531.6 Q2290.35 1524.47 2288.52 1520.93 Q2286.72 1517.37 2283.08 1517.37 M2283.08 1513.66 Q2288.89 1513.66 2291.95 1518.27 Q2295.03 1522.85 2295.03 1531.6 Q2295.03 1540.33 2291.95 1544.94 Q2288.89 1549.52 2283.08 1549.52 Q2277.27 1549.52 2274.19 1544.94 Q2271.14 1540.33 2271.14 1531.6 Q2271.14 1522.85 2274.19 1518.27 Q2277.27 1513.66 2283.08 1513.66 Z" fill="#000000" fill-rule="nonzero" fill-opacity="1" /><path clip-path="url(#clip630)" d="M2303.24 1542.97 L2308.13 1542.97 L2308.13 1548.85 L2303.24 1548.85 L2303.24 1542.97 Z" fill="#000000" fill-rule="nonzero" fill-opacity="1" /><path clip-path="url(#clip630)" d="M2328.31 1517.37 Q2324.7 1517.37 2322.87 1520.93 Q2321.07 1524.47 2321.07 1531.6 Q2321.07 1538.71 2322.87 1542.27 Q2324.7 1545.82 2328.31 1545.82 Q2331.95 1545.82 2333.75 1542.27 Q2335.58 1538.71 2335.58 1531.6 Q2335.58 1524.47 2333.75 1520.93 Q2331.95 1517.37 2328.31 1517.37 M2328.31 1513.66 Q2334.12 1513.66 2337.18 1518.27 Q2340.26 1522.85 2340.26 1531.6 Q2340.26 1540.33 2337.18 1544.94 Q2334.12 1549.52 2328.31 1549.52 Q2322.5 1549.52 2319.42 1544.94 Q2316.37 1540.33 2316.37 1531.6 Q2316.37 1522.85 2319.42 1518.27 Q2322.5 1513.66 2328.31 1513.66 Z" fill="#000000" fill-rule="nonzero" fill-opacity="1" /><polyline clip-path="url(#clip630)" style="stroke:#000000; stroke-linecap:round; stroke-linejoin:round; stroke-width:4; stroke-opacity:1; fill:none" points="193.936,1486.45 193.936,47.2441 "/>
<polyline clip-path="url(#clip630)" style="stroke:#000000; stroke-linecap:round; stroke-linejoin:round; stroke-width:4; stroke-opacity:1; fill:none" points="193.936,1334.22 212.834,1334.22 "/>
<polyline clip-path="url(#clip630)" style="stroke:#000000; stroke-linecap:round; stroke-linejoin:round; stroke-width:4; stroke-opacity:1; fill:none" points="193.936,1145.3 212.834,1145.3 "/>
<polyline clip-path="url(#clip630)" style="stroke:#000000; stroke-linecap:round; stroke-linejoin:round; stroke-width:4; stroke-opacity:1; fill:none" points="193.936,956.372 212.834,956.372 "/>
<polyline clip-path="url(#clip630)" style="stroke:#000000; stroke-linecap:round; stroke-linejoin:round; stroke-width:4; stroke-opacity:1; fill:none" points="193.936,767.448 212.834,767.448 "/>
<polyline clip-path="url(#clip630)" style="stroke:#000000; stroke-linecap:round; stroke-linejoin:round; stroke-width:4; stroke-opacity:1; fill:none" points="193.936,578.524 212.834,578.524 "/>
<polyline clip-path="url(#clip630)" style="stroke:#000000; stroke-linecap:round; stroke-linejoin:round; stroke-width:4; stroke-opacity:1; fill:none" points="193.936,389.6 212.834,389.6 "/>
<polyline clip-path="url(#clip630)" style="stroke:#000000; stroke-linecap:round; stroke-linejoin:round; stroke-width:4; stroke-opacity:1; fill:none" points="193.936,200.676 212.834,200.676 "/>
<path clip-path="url(#clip630)" d="M51.9875 1334.67 L81.6633 1334.67 L81.6633 1338.61 L51.9875 1338.61 L51.9875 1334.67 Z" fill="#000000" fill-rule="nonzero" fill-opacity="1" /><path clip-path="url(#clip630)" d="M90.5752 1316.94 L112.797 1316.94 L112.797 1318.93 L100.251 1351.5 L95.3669 1351.5 L107.172 1320.88 L90.5752 1320.88 L90.5752 1316.94 Z" fill="#000000" fill-rule="nonzero" fill-opacity="1" /><path clip-path="url(#clip630)" d="M121.918 1345.62 L126.802 1345.62 L126.802 1351.5 L121.918 1351.5 L121.918 1345.62 Z" fill="#000000" fill-rule="nonzero" fill-opacity="1" /><path clip-path="url(#clip630)" d="M137.033 1316.94 L155.39 1316.94 L155.39 1320.88 L141.316 1320.88 L141.316 1329.35 Q142.334 1329 143.353 1328.84 Q144.371 1328.65 145.39 1328.65 Q151.177 1328.65 154.556 1331.82 Q157.936 1335 157.936 1340.41 Q157.936 1345.99 154.464 1349.09 Q150.992 1352.17 144.672 1352.17 Q142.496 1352.17 140.228 1351.8 Q137.982 1351.43 135.575 1350.69 L135.575 1345.99 Q137.658 1347.13 139.881 1347.68 Q142.103 1348.24 144.58 1348.24 Q148.584 1348.24 150.922 1346.13 Q153.26 1344.02 153.26 1340.41 Q153.26 1336.8 150.922 1334.7 Q148.584 1332.59 144.58 1332.59 Q142.705 1332.59 140.83 1333.01 Q138.978 1333.42 137.033 1334.3 L137.033 1316.94 Z" fill="#000000" fill-rule="nonzero" fill-opacity="1" /><path clip-path="url(#clip630)" d="M50.9921 1145.75 L80.6679 1145.75 L80.6679 1149.68 L50.9921 1149.68 L50.9921 1145.75 Z" fill="#000000" fill-rule="nonzero" fill-opacity="1" /><path clip-path="url(#clip630)" d="M90.8067 1128.02 L109.163 1128.02 L109.163 1131.95 L95.0891 1131.95 L95.0891 1140.42 Q96.1076 1140.08 97.1261 1139.91 Q98.1447 1139.73 99.1632 1139.73 Q104.95 1139.73 108.33 1142.9 Q111.709 1146.07 111.709 1151.49 Q111.709 1157.07 108.237 1160.17 Q104.765 1163.25 98.4456 1163.25 Q96.2697 1163.25 94.0012 1162.88 Q91.7558 1162.51 89.3484 1161.77 L89.3484 1157.07 Q91.4317 1158.2 93.6539 1158.76 Q95.8761 1159.31 98.353 1159.31 Q102.358 1159.31 104.696 1157.21 Q107.033 1155.1 107.033 1151.49 Q107.033 1147.88 104.696 1145.77 Q102.358 1143.66 98.353 1143.66 Q96.478 1143.66 94.603 1144.08 Q92.7512 1144.5 90.8067 1145.38 L90.8067 1128.02 Z" fill="#000000" fill-rule="nonzero" fill-opacity="1" /><path clip-path="url(#clip630)" d="M120.922 1156.7 L125.807 1156.7 L125.807 1162.58 L120.922 1162.58 L120.922 1156.7 Z" fill="#000000" fill-rule="nonzero" fill-opacity="1" /><path clip-path="url(#clip630)" d="M145.992 1131.1 Q142.381 1131.1 140.552 1134.66 Q138.746 1138.2 138.746 1145.33 Q138.746 1152.44 140.552 1156 Q142.381 1159.54 145.992 1159.54 Q149.626 1159.54 151.431 1156 Q153.26 1152.44 153.26 1145.33 Q153.26 1138.2 151.431 1134.66 Q149.626 1131.1 145.992 1131.1 M145.992 1127.39 Q151.802 1127.39 154.857 1132 Q157.936 1136.58 157.936 1145.33 Q157.936 1154.06 154.857 1158.66 Q151.802 1163.25 145.992 1163.25 Q140.181 1163.25 137.103 1158.66 Q134.047 1154.06 134.047 1145.33 Q134.047 1136.58 137.103 1132 Q140.181 1127.39 145.992 1127.39 Z" fill="#000000" fill-rule="nonzero" fill-opacity="1" /><path clip-path="url(#clip630)" d="M51.9875 956.824 L81.6633 956.824 L81.6633 960.759 L51.9875 960.759 L51.9875 956.824 Z" fill="#000000" fill-rule="nonzero" fill-opacity="1" /><path clip-path="url(#clip630)" d="M95.7836 969.717 L112.103 969.717 L112.103 973.652 L90.1586 973.652 L90.1586 969.717 Q92.8206 966.963 97.4039 962.333 Q102.01 957.68 103.191 956.338 Q105.436 953.815 106.316 952.079 Q107.219 950.319 107.219 948.629 Q107.219 945.875 105.274 944.139 Q103.353 942.403 100.251 942.403 Q98.0521 942.403 95.5984 943.167 Q93.1678 943.93 90.3901 945.481 L90.3901 940.759 Q93.2141 939.625 95.6678 939.046 Q98.1215 938.467 100.159 938.467 Q105.529 938.467 108.723 941.153 Q111.918 943.838 111.918 948.329 Q111.918 950.458 111.108 952.379 Q110.321 954.278 108.214 956.87 Q107.635 957.541 104.534 960.759 Q101.432 963.953 95.7836 969.717 Z" fill="#000000" fill-rule="nonzero" fill-opacity="1" /><path clip-path="url(#clip630)" d="M121.918 967.773 L126.802 967.773 L126.802 973.652 L121.918 973.652 L121.918 967.773 Z" fill="#000000" fill-rule="nonzero" fill-opacity="1" /><path clip-path="url(#clip630)" d="M137.033 939.092 L155.39 939.092 L155.39 943.028 L141.316 943.028 L141.316 951.5 Q142.334 951.153 143.353 950.991 Q144.371 950.805 145.39 950.805 Q151.177 950.805 154.556 953.977 Q157.936 957.148 157.936 962.565 Q157.936 968.143 154.464 971.245 Q150.992 974.324 144.672 974.324 Q142.496 974.324 140.228 973.953 Q137.982 973.583 135.575 972.842 L135.575 968.143 Q137.658 969.277 139.881 969.833 Q142.103 970.389 144.58 970.389 Q148.584 970.389 150.922 968.282 Q153.26 966.176 153.26 962.565 Q153.26 958.953 150.922 956.847 Q148.584 954.741 144.58 954.741 Q142.705 954.741 140.83 955.157 Q138.978 955.574 137.033 956.453 L137.033 939.092 Z" fill="#000000" fill-rule="nonzero" fill-opacity="1" /><path clip-path="url(#clip630)" d="M100.76 753.247 Q97.1493 753.247 95.3206 756.812 Q93.515 760.353 93.515 767.483 Q93.515 774.589 95.3206 778.154 Q97.1493 781.696 100.76 781.696 Q104.395 781.696 106.2 778.154 Q108.029 774.589 108.029 767.483 Q108.029 760.353 106.2 756.812 Q104.395 753.247 100.76 753.247 M100.76 749.543 Q106.571 749.543 109.626 754.15 Q112.705 758.733 112.705 767.483 Q112.705 776.21 109.626 780.816 Q106.571 785.4 100.76 785.4 Q94.9502 785.4 91.8715 780.816 Q88.816 776.21 88.816 767.483 Q88.816 758.733 91.8715 754.15 Q94.9502 749.543 100.76 749.543 Z" fill="#000000" fill-rule="nonzero" fill-opacity="1" /><path clip-path="url(#clip630)" d="M120.922 778.849 L125.807 778.849 L125.807 784.728 L120.922 784.728 L120.922 778.849 Z" fill="#000000" fill-rule="nonzero" fill-opacity="1" /><path clip-path="url(#clip630)" d="M145.992 753.247 Q142.381 753.247 140.552 756.812 Q138.746 760.353 138.746 767.483 Q138.746 774.589 140.552 778.154 Q142.381 781.696 145.992 781.696 Q149.626 781.696 151.431 778.154 Q153.26 774.589 153.26 767.483 Q153.26 760.353 151.431 756.812 Q149.626 753.247 145.992 753.247 M145.992 749.543 Q151.802 749.543 154.857 754.15 Q157.936 758.733 157.936 767.483 Q157.936 776.21 154.857 780.816 Q151.802 785.4 145.992 785.4 Q140.181 785.4 137.103 780.816 Q134.047 776.21 134.047 767.483 Q134.047 758.733 137.103 754.15 Q140.181 749.543 145.992 749.543 Z" fill="#000000" fill-rule="nonzero" fill-opacity="1" /><path clip-path="url(#clip630)" d="M95.7836 591.869 L112.103 591.869 L112.103 595.804 L90.1586 595.804 L90.1586 591.869 Q92.8206 589.114 97.4039 584.485 Q102.01 579.832 103.191 578.489 Q105.436 575.966 106.316 574.23 Q107.219 572.471 107.219 570.781 Q107.219 568.027 105.274 566.29 Q103.353 564.554 100.251 564.554 Q98.0521 564.554 95.5984 565.318 Q93.1678 566.082 90.3901 567.633 L90.3901 562.911 Q93.2141 561.777 95.6678 561.198 Q98.1215 560.619 100.159 560.619 Q105.529 560.619 108.723 563.304 Q111.918 565.989 111.918 570.48 Q111.918 572.61 111.108 574.531 Q110.321 576.429 108.214 579.022 Q107.635 579.693 104.534 582.911 Q101.432 586.105 95.7836 591.869 Z" fill="#000000" fill-rule="nonzero" fill-opacity="1" /><path clip-path="url(#clip630)" d="M121.918 589.925 L126.802 589.925 L126.802 595.804 L121.918 595.804 L121.918 589.925 Z" fill="#000000" fill-rule="nonzero" fill-opacity="1" /><path clip-path="url(#clip630)" d="M137.033 561.244 L155.39 561.244 L155.39 565.179 L141.316 565.179 L141.316 573.651 Q142.334 573.304 143.353 573.142 Q144.371 572.957 145.39 572.957 Q151.177 572.957 154.556 576.128 Q157.936 579.3 157.936 584.716 Q157.936 590.295 154.464 593.397 Q150.992 596.475 144.672 596.475 Q142.496 596.475 140.228 596.105 Q137.982 595.735 135.575 594.994 L135.575 590.295 Q137.658 591.429 139.881 591.985 Q142.103 592.54 144.58 592.54 Q148.584 592.54 150.922 590.434 Q153.26 588.327 153.26 584.716 Q153.26 581.105 150.922 578.999 Q148.584 576.892 144.58 576.892 Q142.705 576.892 140.83 577.309 Q138.978 577.726 137.033 578.605 L137.033 561.244 Z" fill="#000000" fill-rule="nonzero" fill-opacity="1" /><path clip-path="url(#clip630)" d="M90.8067 372.32 L109.163 372.32 L109.163 376.255 L95.0891 376.255 L95.0891 384.727 Q96.1076 384.38 97.1261 384.218 Q98.1447 384.033 99.1632 384.033 Q104.95 384.033 108.33 387.204 Q111.709 390.375 111.709 395.792 Q111.709 401.371 108.237 404.473 Q104.765 407.551 98.4456 407.551 Q96.2697 407.551 94.0012 407.181 Q91.7558 406.811 89.3484 406.07 L89.3484 401.371 Q91.4317 402.505 93.6539 403.061 Q95.8761 403.616 98.353 403.616 Q102.358 403.616 104.696 401.51 Q107.033 399.403 107.033 395.792 Q107.033 392.181 104.696 390.075 Q102.358 387.968 98.353 387.968 Q96.478 387.968 94.603 388.385 Q92.7512 388.801 90.8067 389.681 L90.8067 372.32 Z" fill="#000000" fill-rule="nonzero" fill-opacity="1" /><path clip-path="url(#clip630)" d="M120.922 401 L125.807 401 L125.807 406.88 L120.922 406.88 L120.922 401 Z" fill="#000000" fill-rule="nonzero" fill-opacity="1" /><path clip-path="url(#clip630)" d="M145.992 375.399 Q142.381 375.399 140.552 378.963 Q138.746 382.505 138.746 389.635 Q138.746 396.741 140.552 400.306 Q142.381 403.848 145.992 403.848 Q149.626 403.848 151.431 400.306 Q153.26 396.741 153.26 389.635 Q153.26 382.505 151.431 378.963 Q149.626 375.399 145.992 375.399 M145.992 371.695 Q151.802 371.695 154.857 376.301 Q157.936 380.885 157.936 389.635 Q157.936 398.361 154.857 402.968 Q151.802 407.551 145.992 407.551 Q140.181 407.551 137.103 402.968 Q134.047 398.361 134.047 389.635 Q134.047 380.885 137.103 376.301 Q140.181 371.695 145.992 371.695 Z" fill="#000000" fill-rule="nonzero" fill-opacity="1" /><path clip-path="url(#clip630)" d="M90.5752 183.396 L112.797 183.396 L112.797 185.387 L100.251 217.956 L95.3669 217.956 L107.172 187.331 L90.5752 187.331 L90.5752 183.396 Z" fill="#000000" fill-rule="nonzero" fill-opacity="1" /><path clip-path="url(#clip630)" d="M121.918 212.076 L126.802 212.076 L126.802 217.956 L121.918 217.956 L121.918 212.076 Z" fill="#000000" fill-rule="nonzero" fill-opacity="1" /><path clip-path="url(#clip630)" d="M137.033 183.396 L155.39 183.396 L155.39 187.331 L141.316 187.331 L141.316 195.803 Q142.334 195.456 143.353 195.294 Q144.371 195.109 145.39 195.109 Q151.177 195.109 154.556 198.28 Q157.936 201.451 157.936 206.868 Q157.936 212.447 154.464 215.548 Q150.992 218.627 144.672 218.627 Q142.496 218.627 140.228 218.257 Q137.982 217.886 135.575 217.146 L135.575 212.447 Q137.658 213.581 139.881 214.136 Q142.103 214.692 144.58 214.692 Q148.584 214.692 150.922 212.585 Q153.26 210.479 153.26 206.868 Q153.26 203.257 150.922 201.15 Q148.584 199.044 144.58 199.044 Q142.705 199.044 140.83 199.461 Q138.978 199.877 137.033 200.757 L137.033 183.396 Z" fill="#000000" fill-rule="nonzero" fill-opacity="1" /><path clip-path="url(#clip631)" d="M255.035 1445.72 L280.947 1420.31 L404.407 1311.75 L600.187 1175.39 L823.815 1060.9 L1101.76 962.31 L1413.79 890.507 L1766.13 840.682 L2148.3 809.158 L2291.66 801.218 L2291.66 733.619 L2148.3 725.665 L1766.13 694.084 L1413.79 644.171 L1101.76 572.241 L823.815 473.475 L600.187 358.782 L404.407 222.176 L280.947 113.423 L255.035 87.9763  Z" fill="#009af9" fill-rule="evenodd" fill-opacity="0.2"/>
<polyline clip-path="url(#clip631)" style="stroke:#009af9; stroke-linecap:round; stroke-linejoin:round; stroke-width:12; stroke-opacity:1; fill:none" points="255.035,770.781 280.947,770.657 404.407,770.123 600.187,769.453 823.815,768.89 1101.76,768.406 1413.79,768.053 1766.13,767.808 2148.3,767.653 2291.66,767.614 "/>
</svg>
