<?xml version="1.0" encoding="utf-8"?>
<svg xmlns="http://www.w3.org/2000/svg" xmlns:xlink="http://www.w3.org/1999/xlink" width="600" height="400" viewBox="0 0 2400 1600">
<defs>
  <clipPath id="clip810">
    <rect x="0" y="0" width="2400" height="1600"/>
  </clipPath>
</defs>
<path clip-path="url(#clip810)" d="M0 1600 L2400 1600 L2400 0 L0 0  Z" fill="#ffffff" fill-rule="evenodd" fill-opacity="1"/>
<defs>
  <clipPath id="clip811">
    <rect x="480" y="0" width="1681" height="1600"/>
  </clipPath>
</defs>
<path clip-path="url(#clip810)" d="M205.121 1423.18 L2352.76 1423.18 L2352.76 47.2441 L205.121 47.2441  Z" fill="#ffffff" fill-rule="evenodd" fill-opacity="1"/>
<defs>
  <clipPath id="clip812">
    <rect x="205" y="47" width="2149" height="1377"/>
  </clipPath>
</defs>
<polyline clip-path="url(#clip812)" style="stroke:#000000; stroke-linecap:round; stroke-linejoin:round; stroke-width:2; stroke-opacity:0.1; fill:none" points="265.903,1423.18 265.903,47.2441 "/>
<polyline clip-path="url(#clip812)" style="stroke:#000000; stroke-linecap:round; stroke-linejoin:round; stroke-width:2; stroke-opacity:0.1; fill:none" points="941.26,1423.18 941.26,47.2441 "/>
<polyline clip-path="url(#clip812)" style="stroke:#000000; stroke-linecap:round; stroke-linejoin:round; stroke-width:2; stroke-opacity:0.1; fill:none" points="1616.62,1423.18 1616.62,47.2441 "/>
<polyline clip-path="url(#clip812)" style="stroke:#000000; stroke-linecap:round; stroke-linejoin:round; stroke-width:2; stroke-opacity:0.1; fill:none" points="2291.97,1423.18 2291.97,47.2441 "/>
<polyline clip-path="url(#clip810)" style="stroke:#000000; stroke-linecap:round; stroke-linejoin:round; stroke-width:4; stroke-opacity:1; fill:none" points="205.121,1423.18 2352.76,1423.18 "/>
<polyline clip-path="url(#clip810)" style="stroke:#000000; stroke-linecap:round; stroke-linejoin:round; stroke-width:4; stroke-opacity:1; fill:none" points="265.903,1423.18 265.903,1404.28 "/>
<polyline clip-path="url(#clip810)" style="stroke:#000000; stroke-linecap:round; stroke-linejoin:round; stroke-width:4; stroke-opacity:1; fill:none" points="941.26,1423.18 941.26,1404.28 "/>
<polyline clip-path="url(#clip810)" style="stroke:#000000; stroke-linecap:round; stroke-linejoin:round; stroke-width:4; stroke-opacity:1; fill:none" points="1616.62,1423.18 1616.62,1404.28 "/>
<polyline clip-path="url(#clip810)" style="stroke:#000000; stroke-linecap:round; stroke-linejoin:round; stroke-width:4; stroke-opacity:1; fill:none" points="2291.97,1423.18 2291.97,1404.28 "/>
<path clip-path="url(#clip810)" d="M265.903 1454.1 Q262.292 1454.1 260.463 1457.66 Q258.658 1461.2 258.658 1468.33 Q258.658 1475.44 260.463 1479.01 Q262.292 1482.55 265.903 1482.55 Q269.537 1482.55 271.343 1479.01 Q273.172 1475.44 273.172 1468.33 Q273.172 1461.2 271.343 1457.66 Q269.537 1454.1 265.903 1454.1 M265.903 1450.39 Q271.713 1450.39 274.769 1455 Q277.847 1459.58 277.847 1468.33 Q277.847 1477.06 274.769 1481.67 Q271.713 1486.25 265.903 1486.25 Q260.093 1486.25 257.014 1481.67 Q253.959 1477.06 253.959 1468.33 Q253.959 1459.58 257.014 1455 Q260.093 1450.39 265.903 1450.39 Z" fill="#000000" fill-rule="nonzero" fill-opacity="1" /><path clip-path="url(#clip810)" d="M915.948 1481.64 L923.586 1481.64 L923.586 1455.28 L915.276 1456.95 L915.276 1452.69 L923.54 1451.02 L928.216 1451.02 L928.216 1481.64 L935.855 1481.64 L935.855 1485.58 L915.948 1485.58 L915.948 1481.64 Z" fill="#000000" fill-rule="nonzero" fill-opacity="1" /><path clip-path="url(#clip810)" d="M955.299 1454.1 Q951.688 1454.1 949.859 1457.66 Q948.054 1461.2 948.054 1468.33 Q948.054 1475.44 949.859 1479.01 Q951.688 1482.55 955.299 1482.55 Q958.934 1482.55 960.739 1479.01 Q962.568 1475.44 962.568 1468.33 Q962.568 1461.2 960.739 1457.66 Q958.934 1454.1 955.299 1454.1 M955.299 1450.39 Q961.109 1450.39 964.165 1455 Q967.244 1459.58 967.244 1468.33 Q967.244 1477.06 964.165 1481.67 Q961.109 1486.25 955.299 1486.25 Q949.489 1486.25 946.41 1481.67 Q943.355 1477.06 943.355 1468.33 Q943.355 1459.58 946.41 1455 Q949.489 1450.39 955.299 1450.39 Z" fill="#000000" fill-rule="nonzero" fill-opacity="1" /><path clip-path="url(#clip810)" d="M1595.39 1481.64 L1611.71 1481.64 L1611.71 1485.58 L1589.77 1485.58 L1589.77 1481.64 Q1592.43 1478.89 1597.01 1474.26 Q1601.62 1469.61 1602.8 1468.27 Q1605.04 1465.74 1605.92 1464.01 Q1606.83 1462.25 1606.83 1460.56 Q1606.83 1457.8 1604.88 1456.07 Q1602.96 1454.33 1599.86 1454.33 Q1597.66 1454.33 1595.2 1455.09 Q1592.77 1455.86 1590 1457.41 L1590 1452.69 Q1592.82 1451.55 1595.27 1450.97 Q1597.73 1450.39 1599.77 1450.39 Q1605.14 1450.39 1608.33 1453.08 Q1611.52 1455.77 1611.52 1460.26 Q1611.52 1462.39 1610.71 1464.31 Q1609.93 1466.2 1607.82 1468.8 Q1607.24 1469.47 1604.14 1472.69 Q1601.04 1475.88 1595.39 1481.64 Z" fill="#000000" fill-rule="nonzero" fill-opacity="1" /><path clip-path="url(#clip810)" d="M1631.52 1454.1 Q1627.91 1454.1 1626.08 1457.66 Q1624.28 1461.2 1624.28 1468.33 Q1624.28 1475.44 1626.08 1479.01 Q1627.91 1482.55 1631.52 1482.55 Q1635.16 1482.55 1636.96 1479.01 Q1638.79 1475.44 1638.79 1468.33 Q1638.79 1461.2 1636.96 1457.66 Q1635.16 1454.1 1631.52 1454.1 M1631.52 1450.39 Q1637.33 1450.39 1640.39 1455 Q1643.47 1459.58 1643.47 1468.33 Q1643.47 1477.06 1640.39 1481.67 Q1637.33 1486.25 1631.52 1486.25 Q1625.71 1486.25 1622.64 1481.67 Q1619.58 1477.06 1619.58 1468.33 Q1619.58 1459.58 1622.64 1455 Q1625.71 1450.39 1631.52 1450.39 Z" fill="#000000" fill-rule="nonzero" fill-opacity="1" /><path clip-path="url(#clip810)" d="M2280.82 1466.95 Q2284.17 1467.66 2286.05 1469.93 Q2287.95 1472.2 2287.95 1475.53 Q2287.95 1480.65 2284.43 1483.45 Q2280.91 1486.25 2274.43 1486.25 Q2272.25 1486.25 2269.94 1485.81 Q2267.65 1485.39 2265.19 1484.54 L2265.19 1480.02 Q2267.14 1481.16 2269.45 1481.74 Q2271.77 1482.32 2274.29 1482.32 Q2278.69 1482.32 2280.98 1480.58 Q2283.29 1478.84 2283.29 1475.53 Q2283.29 1472.48 2281.14 1470.77 Q2279.01 1469.03 2275.19 1469.03 L2271.16 1469.03 L2271.16 1465.19 L2275.38 1465.19 Q2278.83 1465.19 2280.65 1463.82 Q2282.48 1462.43 2282.48 1459.84 Q2282.48 1457.18 2280.58 1455.77 Q2278.71 1454.33 2275.19 1454.33 Q2273.27 1454.33 2271.07 1454.75 Q2268.87 1455.16 2266.23 1456.04 L2266.23 1451.88 Q2268.9 1451.14 2271.21 1450.77 Q2273.55 1450.39 2275.61 1450.39 Q2280.93 1450.39 2284.03 1452.83 Q2287.14 1455.23 2287.14 1459.35 Q2287.14 1462.22 2285.49 1464.21 Q2283.85 1466.18 2280.82 1466.95 Z" fill="#000000" fill-rule="nonzero" fill-opacity="1" /><path clip-path="url(#clip810)" d="M2306.81 1454.1 Q2303.2 1454.1 2301.37 1457.66 Q2299.57 1461.2 2299.57 1468.33 Q2299.57 1475.44 2301.37 1479.01 Q2303.2 1482.55 2306.81 1482.55 Q2310.45 1482.55 2312.25 1479.01 Q2314.08 1475.44 2314.08 1468.33 Q2314.08 1461.2 2312.25 1457.66 Q2310.45 1454.1 2306.81 1454.1 M2306.81 1450.39 Q2312.62 1450.39 2315.68 1455 Q2318.76 1459.58 2318.76 1468.33 Q2318.76 1477.06 2315.68 1481.67 Q2312.62 1486.25 2306.81 1486.25 Q2301 1486.25 2297.92 1481.67 Q2294.87 1477.06 2294.87 1468.33 Q2294.87 1459.58 2297.92 1455 Q2301 1450.39 2306.81 1450.39 Z" fill="#000000" fill-rule="nonzero" fill-opacity="1" /><path clip-path="url(#clip810)" d="M1229.75 1532.4 L1216.86 1549.74 L1230.42 1568.04 L1223.51 1568.04 L1213.13 1554.04 L1202.76 1568.04 L1195.85 1568.04 L1209.7 1549.39 L1197.03 1532.4 L1203.93 1532.4 L1213.39 1545.1 L1222.84 1532.4 L1229.75 1532.4 Z" fill="#000000" fill-rule="nonzero" fill-opacity="1" /><path clip-path="url(#clip810)" d="M1258.87 1518.52 L1272.37 1518.52 L1272.37 1523.07 L1264.73 1523.07 L1264.73 1572.09 L1272.37 1572.09 L1272.37 1576.64 L1258.87 1576.64 L1258.87 1518.52 Z" fill="#000000" fill-rule="nonzero" fill-opacity="1" /><path clip-path="url(#clip810)" d="M1312.6 1539.24 Q1314.79 1535.29 1317.85 1533.41 Q1320.9 1531.54 1325.04 1531.54 Q1330.61 1531.54 1333.64 1535.45 Q1336.66 1539.33 1336.66 1546.53 L1336.66 1568.04 L1330.77 1568.04 L1330.77 1546.72 Q1330.77 1541.59 1328.96 1539.11 Q1327.14 1536.63 1323.42 1536.63 Q1318.87 1536.63 1316.23 1539.65 Q1313.58 1542.68 1313.58 1547.9 L1313.58 1568.04 L1307.7 1568.04 L1307.7 1546.72 Q1307.7 1541.56 1305.88 1539.11 Q1304.07 1536.63 1300.28 1536.63 Q1295.79 1536.63 1293.15 1539.68 Q1290.51 1542.71 1290.51 1547.9 L1290.51 1568.04 L1284.62 1568.04 L1284.62 1532.4 L1290.51 1532.4 L1290.51 1537.93 Q1292.51 1534.66 1295.31 1533.1 Q1298.12 1531.54 1301.97 1531.54 Q1305.85 1531.54 1308.55 1533.51 Q1311.29 1535.48 1312.6 1539.24 Z" fill="#000000" fill-rule="nonzero" fill-opacity="1" /><path clip-path="url(#clip810)" d="M1362.03 1518.52 L1362.03 1576.64 L1348.53 1576.64 L1348.53 1572.09 L1356.14 1572.09 L1356.14 1523.07 L1348.53 1523.07 L1348.53 1518.52 L1362.03 1518.52 Z" fill="#000000" fill-rule="nonzero" fill-opacity="1" /><polyline clip-path="url(#clip812)" style="stroke:#000000; stroke-linecap:round; stroke-linejoin:round; stroke-width:2; stroke-opacity:0.1; fill:none" points="205.121,1423.18 2352.76,1423.18 "/>
<polyline clip-path="url(#clip812)" style="stroke:#000000; stroke-linecap:round; stroke-linejoin:round; stroke-width:2; stroke-opacity:0.1; fill:none" points="205.121,1147.99 2352.76,1147.99 "/>
<polyline clip-path="url(#clip812)" style="stroke:#000000; stroke-linecap:round; stroke-linejoin:round; stroke-width:2; stroke-opacity:0.1; fill:none" points="205.121,872.806 2352.76,872.806 "/>
<polyline clip-path="url(#clip812)" style="stroke:#000000; stroke-linecap:round; stroke-linejoin:round; stroke-width:2; stroke-opacity:0.1; fill:none" points="205.121,597.618 2352.76,597.618 "/>
<polyline clip-path="url(#clip812)" style="stroke:#000000; stroke-linecap:round; stroke-linejoin:round; stroke-width:2; stroke-opacity:0.1; fill:none" points="205.121,322.431 2352.76,322.431 "/>
<polyline clip-path="url(#clip812)" style="stroke:#000000; stroke-linecap:round; stroke-linejoin:round; stroke-width:2; stroke-opacity:0.1; fill:none" points="205.121,47.2441 2352.76,47.2441 "/>
<polyline clip-path="url(#clip810)" style="stroke:#000000; stroke-linecap:round; stroke-linejoin:round; stroke-width:4; stroke-opacity:1; fill:none" points="205.121,1423.18 205.121,47.2441 "/>
<polyline clip-path="url(#clip810)" style="stroke:#000000; stroke-linecap:round; stroke-linejoin:round; stroke-width:4; stroke-opacity:1; fill:none" points="205.121,1423.18 224.019,1423.18 "/>
<polyline clip-path="url(#clip810)" style="stroke:#000000; stroke-linecap:round; stroke-linejoin:round; stroke-width:4; stroke-opacity:1; fill:none" points="205.121,1147.99 224.019,1147.99 "/>
<polyline clip-path="url(#clip810)" style="stroke:#000000; stroke-linecap:round; stroke-linejoin:round; stroke-width:4; stroke-opacity:1; fill:none" points="205.121,872.806 224.019,872.806 "/>
<polyline clip-path="url(#clip810)" style="stroke:#000000; stroke-linecap:round; stroke-linejoin:round; stroke-width:4; stroke-opacity:1; fill:none" points="205.121,597.618 224.019,597.618 "/>
<polyline clip-path="url(#clip810)" style="stroke:#000000; stroke-linecap:round; stroke-linejoin:round; stroke-width:4; stroke-opacity:1; fill:none" points="205.121,322.431 224.019,322.431 "/>
<polyline clip-path="url(#clip810)" style="stroke:#000000; stroke-linecap:round; stroke-linejoin:round; stroke-width:4; stroke-opacity:1; fill:none" points="205.121,47.2441 224.019,47.2441 "/>
<path clip-path="url(#clip810)" d="M157.177 1408.98 Q153.566 1408.98 151.737 1412.54 Q149.931 1416.08 149.931 1423.21 Q149.931 1430.32 151.737 1433.89 Q153.566 1437.43 157.177 1437.43 Q160.811 1437.43 162.616 1433.89 Q164.445 1430.32 164.445 1423.21 Q164.445 1416.08 162.616 1412.54 Q160.811 1408.98 157.177 1408.98 M157.177 1405.27 Q162.987 1405.27 166.042 1409.88 Q169.121 1414.46 169.121 1423.21 Q169.121 1431.94 166.042 1436.55 Q162.987 1441.13 157.177 1441.13 Q151.366 1441.13 148.288 1436.55 Q145.232 1431.94 145.232 1423.21 Q145.232 1414.46 148.288 1409.88 Q151.366 1405.27 157.177 1405.27 Z" fill="#000000" fill-rule="nonzero" fill-opacity="1" /><path clip-path="url(#clip810)" d="M117.825 1161.34 L125.464 1161.34 L125.464 1134.97 L117.154 1136.64 L117.154 1132.38 L125.418 1130.71 L130.093 1130.71 L130.093 1161.34 L137.732 1161.34 L137.732 1165.27 L117.825 1165.27 L117.825 1161.34 Z" fill="#000000" fill-rule="nonzero" fill-opacity="1" /><path clip-path="url(#clip810)" d="M157.177 1133.79 Q153.566 1133.79 151.737 1137.36 Q149.931 1140.9 149.931 1148.03 Q149.931 1155.13 151.737 1158.7 Q153.566 1162.24 157.177 1162.24 Q160.811 1162.24 162.616 1158.7 Q164.445 1155.13 164.445 1148.03 Q164.445 1140.9 162.616 1137.36 Q160.811 1133.79 157.177 1133.79 M157.177 1130.09 Q162.987 1130.09 166.042 1134.69 Q169.121 1139.28 169.121 1148.03 Q169.121 1156.75 166.042 1161.36 Q162.987 1165.94 157.177 1165.94 Q151.366 1165.94 148.288 1161.36 Q145.232 1156.75 145.232 1148.03 Q145.232 1139.28 148.288 1134.69 Q151.366 1130.09 157.177 1130.09 Z" fill="#000000" fill-rule="nonzero" fill-opacity="1" /><path clip-path="url(#clip810)" d="M121.043 886.15 L137.362 886.15 L137.362 890.086 L115.418 890.086 L115.418 886.15 Q118.08 883.396 122.663 878.766 Q127.269 874.113 128.45 872.771 Q130.695 870.248 131.575 868.512 Q132.478 866.752 132.478 865.063 Q132.478 862.308 130.533 860.572 Q128.612 858.836 125.51 858.836 Q123.311 858.836 120.857 859.6 Q118.427 860.363 115.649 861.914 L115.649 857.192 Q118.473 856.058 120.927 855.479 Q123.38 854.901 125.418 854.901 Q130.788 854.901 133.982 857.586 Q137.177 860.271 137.177 864.762 Q137.177 866.891 136.367 868.813 Q135.579 870.711 133.473 873.303 Q132.894 873.975 129.792 877.192 Q126.691 880.387 121.043 886.15 Z" fill="#000000" fill-rule="nonzero" fill-opacity="1" /><path clip-path="url(#clip810)" d="M157.177 858.604 Q153.566 858.604 151.737 862.169 Q149.931 865.711 149.931 872.84 Q149.931 879.947 151.737 883.512 Q153.566 887.053 157.177 887.053 Q160.811 887.053 162.616 883.512 Q164.445 879.947 164.445 872.84 Q164.445 865.711 162.616 862.169 Q160.811 858.604 157.177 858.604 M157.177 854.901 Q162.987 854.901 166.042 859.507 Q169.121 864.09 169.121 872.84 Q169.121 881.567 166.042 886.174 Q162.987 890.757 157.177 890.757 Q151.366 890.757 148.288 886.174 Q145.232 881.567 145.232 872.84 Q145.232 864.09 148.288 859.507 Q151.366 854.901 157.177 854.901 Z" fill="#000000" fill-rule="nonzero" fill-opacity="1" /><path clip-path="url(#clip810)" d="M131.181 596.264 Q134.538 596.982 136.413 599.25 Q138.311 601.519 138.311 604.852 Q138.311 609.968 134.792 612.769 Q131.274 615.57 124.793 615.57 Q122.617 615.57 120.302 615.13 Q118.01 614.713 115.556 613.857 L115.556 609.343 Q117.501 610.477 119.816 611.056 Q122.13 611.635 124.654 611.635 Q129.052 611.635 131.343 609.898 Q133.658 608.162 133.658 604.852 Q133.658 601.797 131.505 600.084 Q129.376 598.348 125.556 598.348 L121.529 598.348 L121.529 594.505 L125.742 594.505 Q129.191 594.505 131.019 593.139 Q132.848 591.75 132.848 589.158 Q132.848 586.496 130.95 585.084 Q129.075 583.649 125.556 583.649 Q123.635 583.649 121.436 584.065 Q119.237 584.482 116.598 585.362 L116.598 581.195 Q119.26 580.454 121.575 580.084 Q123.913 579.713 125.973 579.713 Q131.297 579.713 134.399 582.144 Q137.501 584.551 137.501 588.672 Q137.501 591.542 135.857 593.533 Q134.214 595.5 131.181 596.264 Z" fill="#000000" fill-rule="nonzero" fill-opacity="1" /><path clip-path="url(#clip810)" d="M157.177 583.417 Q153.566 583.417 151.737 586.982 Q149.931 590.524 149.931 597.653 Q149.931 604.76 151.737 608.324 Q153.566 611.866 157.177 611.866 Q160.811 611.866 162.616 608.324 Q164.445 604.76 164.445 597.653 Q164.445 590.524 162.616 586.982 Q160.811 583.417 157.177 583.417 M157.177 579.713 Q162.987 579.713 166.042 584.32 Q169.121 588.903 169.121 597.653 Q169.121 606.38 166.042 610.986 Q162.987 615.57 157.177 615.57 Q151.366 615.57 148.288 610.986 Q145.232 606.38 145.232 597.653 Q145.232 588.903 148.288 584.32 Q151.366 579.713 157.177 579.713 Z" fill="#000000" fill-rule="nonzero" fill-opacity="1" /><path clip-path="url(#clip810)" d="M129.862 309.225 L118.056 327.674 L129.862 327.674 L129.862 309.225 M128.635 305.151 L134.515 305.151 L134.515 327.674 L139.445 327.674 L139.445 331.563 L134.515 331.563 L134.515 339.711 L129.862 339.711 L129.862 331.563 L114.26 331.563 L114.26 327.049 L128.635 305.151 Z" fill="#000000" fill-rule="nonzero" fill-opacity="1" /><path clip-path="url(#clip810)" d="M157.177 308.23 Q153.566 308.23 151.737 311.795 Q149.931 315.336 149.931 322.466 Q149.931 329.572 151.737 333.137 Q153.566 336.679 157.177 336.679 Q160.811 336.679 162.616 333.137 Q164.445 329.572 164.445 322.466 Q164.445 315.336 162.616 311.795 Q160.811 308.23 157.177 308.23 M157.177 304.526 Q162.987 304.526 166.042 309.133 Q169.121 313.716 169.121 322.466 Q169.121 331.193 166.042 335.799 Q162.987 340.383 157.177 340.383 Q151.366 340.383 148.288 335.799 Q145.232 331.193 145.232 322.466 Q145.232 313.716 148.288 309.133 Q151.366 304.526 157.177 304.526 Z" fill="#000000" fill-rule="nonzero" fill-opacity="1" /><path clip-path="url(#clip810)" d="M117.061 29.9641 L135.417 29.9641 L135.417 33.8993 L121.343 33.8993 L121.343 42.3714 Q122.362 42.0242 123.38 41.8622 Q124.399 41.677 125.418 41.677 Q131.205 41.677 134.584 44.8483 Q137.964 48.0196 137.964 53.4362 Q137.964 59.0149 134.492 62.1167 Q131.019 65.1954 124.7 65.1954 Q122.524 65.1954 120.255 64.825 Q118.01 64.4547 115.603 63.7139 L115.603 59.0149 Q117.686 60.1491 119.908 60.7047 Q122.13 61.2602 124.607 61.2602 Q128.612 61.2602 130.95 59.1538 Q133.288 57.0473 133.288 53.4362 Q133.288 49.8251 130.95 47.7186 Q128.612 45.6122 124.607 45.6122 Q122.732 45.6122 120.857 46.0288 Q119.006 46.4455 117.061 47.3251 L117.061 29.9641 Z" fill="#000000" fill-rule="nonzero" fill-opacity="1" /><path clip-path="url(#clip810)" d="M157.177 33.0428 Q153.566 33.0428 151.737 36.6076 Q149.931 40.1492 149.931 47.2788 Q149.931 54.3853 151.737 57.9501 Q153.566 61.4917 157.177 61.4917 Q160.811 61.4917 162.616 57.9501 Q164.445 54.3853 164.445 47.2788 Q164.445 40.1492 162.616 36.6076 Q160.811 33.0428 157.177 33.0428 M157.177 29.3391 Q162.987 29.3391 166.042 33.9456 Q169.121 38.5289 169.121 47.2788 Q169.121 56.0056 166.042 60.6121 Q162.987 65.1954 157.177 65.1954 Q151.366 65.1954 148.288 60.6121 Q145.232 56.0056 145.232 47.2788 Q145.232 38.5289 148.288 33.9456 Q151.366 29.3391 157.177 29.3391 Z" fill="#000000" fill-rule="nonzero" fill-opacity="1" /><path clip-path="url(#clip810)" d="M67.3143 799.235 Q73.68 801.718 75.6216 804.073 Q77.5631 806.428 77.5631 810.375 L77.5631 815.054 L72.6615 815.054 L72.6615 811.616 Q72.6615 809.197 71.5157 807.861 Q70.3699 806.524 66.1048 804.901 L63.4312 803.85 L28.3562 818.269 L28.3562 812.062 L56.238 800.922 L28.3562 789.782 L28.3562 783.575 L67.3143 799.235 Z" fill="#000000" fill-rule="nonzero" fill-opacity="1" /><path clip-path="url(#clip810)" d="M14.479 755.312 L14.479 741.816 L19.0304 741.816 L19.0304 749.455 L68.0464 749.455 L68.0464 741.816 L72.5979 741.816 L72.5979 755.312 L14.479 755.312 Z" fill="#000000" fill-rule="nonzero" fill-opacity="1" /><path clip-path="url(#clip810)" d="M35.1993 701.585 Q31.2526 699.389 29.3747 696.333 Q27.4968 693.278 27.4968 689.14 Q27.4968 683.57 31.4117 680.546 Q35.2948 677.523 42.4881 677.523 L64.0042 677.523 L64.0042 683.411 L42.679 683.411 Q37.5546 683.411 35.072 685.225 Q32.5894 687.039 32.5894 690.763 Q32.5894 695.315 35.6131 697.957 Q38.6368 700.598 43.8567 700.598 L64.0042 700.598 L64.0042 706.487 L42.679 706.487 Q37.5228 706.487 35.072 708.301 Q32.5894 710.115 32.5894 713.903 Q32.5894 718.391 35.6449 721.032 Q38.6686 723.674 43.8567 723.674 L64.0042 723.674 L64.0042 729.562 L28.3562 729.562 L28.3562 723.674 L33.8944 723.674 Q30.616 721.669 29.0564 718.868 Q27.4968 716.067 27.4968 712.216 Q27.4968 708.333 29.4702 705.627 Q31.4436 702.89 35.1993 701.585 Z" fill="#000000" fill-rule="nonzero" fill-opacity="1" /><path clip-path="url(#clip810)" d="M14.479 652.155 L72.5979 652.155 L72.5979 665.651 L68.0464 665.651 L68.0464 658.044 L19.0304 658.044 L19.0304 665.651 L14.479 665.651 L14.479 652.155 Z" fill="#000000" fill-rule="nonzero" fill-opacity="1" /><polyline clip-path="url(#clip812)" style="stroke:#000000; stroke-linecap:round; stroke-linejoin:round; stroke-width:12; stroke-opacity:1; fill:none" points="265.903,47.2441 267.593,47.2652 269.283,47.3286 270.973,47.4342 272.663,47.5821 274.354,47.7723 276.044,48.0046 277.734,48.2793 279.424,48.5962 281.114,48.9553 282.804,49.3567 284.494,49.8004 286.184,50.2863 287.874,50.8144 289.564,51.3848 291.254,51.9975 292.944,52.6524 294.634,53.3496 296.325,54.089 298.015,54.8707 299.705,55.6946 301.395,56.5608 303.085,57.4692 304.775,58.4199 306.465,59.4128 308.155,60.448 309.845,61.5255 311.535,62.6452 313.225,63.8071 314.915,65.0113 316.606,66.2578 318.296,67.5465 319.986,68.8774 321.676,70.2506 323.366,71.6661 325.056,73.1238 326.746,74.6238 328.436,76.166 330.126,77.7505 331.816,79.3772 333.506,81.0462 335.196,82.7574 336.887,84.5109 338.577,86.3066 340.267,88.1446 341.957,90.0248 343.647,91.9473 345.337,93.9121 347.027,95.9191 348.717,97.9683 350.407,100.06 352.097,102.194 353.787,104.37 355.477,106.588 357.168,108.848 358.858,111.151 360.548,113.496 362.238,115.883 363.928,118.313 365.618,120.785 367.308,123.299 368.998,125.855 370.688,128.454 372.378,131.094 374.068,133.777 375.758,136.503 377.449,139.27 379.139,142.08 380.829,144.932 382.519,147.826 384.209,150.763 385.899,153.742 387.589,156.763 389.279,159.826 390.969,162.932 392.659,166.08 394.349,169.27 396.039,172.502 397.73,175.776 399.42,179.093 401.11,182.452 402.8,185.854 404.49,189.297 406.18,192.783 407.87,196.311 409.56,199.882 411.25,203.494 412.94,207.149 414.63,210.846 416.32,214.585 418.011,218.367 419.701,222.191 421.391,226.057 423.081,229.965 424.771,233.916 426.461,237.909 428.151,241.944 429.841,246.021 431.531,250.141 433.221,254.303 434.911,258.507 436.601,262.753 438.291,267.042 439.982,271.373 441.672,275.746 443.362,280.162 445.052,284.619 446.742,289.119 448.432,293.661 450.122,298.246 451.812,302.872 453.502,307.541 455.192,312.252 456.882,317.006 458.572,321.801 460.263,326.639 461.953,331.52 463.643,336.442 465.333,341.407 467.023,346.414 468.713,351.463 470.403,356.554 472.093,361.688 473.783,366.864 475.473,372.082 477.163,377.342 478.853,382.645 480.544,387.99 482.234,393.377 483.924,398.807 485.614,404.279 487.304,409.792 488.994,415.349 490.684,420.947 492.374,426.588 494.064,432.271 495.754,437.996 497.444,443.764 499.134,449.573 500.825,455.425 502.515,461.32 504.205,467.256 505.895,473.235 507.585,479.256 509.275,485.319 510.965,491.424 512.655,497.572 514.345,503.762 516.035,509.995 517.725,516.269 519.415,522.586 521.106,528.945 522.796,535.346 524.486,541.79 526.176,548.275 527.866,554.803 529.556,561.374 531.246,567.986 532.936,574.641 534.626,581.338 536.316,588.077 538.006,594.859 539.696,601.683 541.387,608.549 543.077,615.457 544.767,622.408 546.457,629.4 548.147,636.435 549.837,643.513 551.527,650.632 553.217,657.794 554.907,664.998 556.597,672.244 558.287,679.533 559.977,686.864 561.668,694.237 563.358,701.652 565.048,709.11 566.738,716.61 568.428,724.152 570.118,731.736 571.808,739.363 573.498,747.032 575.188,754.743 576.878,762.496 578.568,770.292 580.258,778.129 581.948,786.01 583.639,793.932 585.329,801.897 587.019,809.903 588.709,817.953 590.399,826.044 592.089,834.178 593.779,842.353 595.469,850.572 597.159,858.832 598.849,867.135 600.539,875.479 602.229,883.867 603.92,892.296 605.61,900.768 607.3,909.282 608.99,917.838 610.68,926.436 612.37,935.077 614.06,943.76 615.75,952.485 617.44,961.252 619.13,970.062 620.82,978.914 622.51,987.808 624.201,996.744 625.891,1005.72 627.581,1014.74 629.271,1023.81 630.961,1032.91 632.651,1042.06 634.341,1051.25 636.031,1060.48 637.721,1069.76 639.411,1079.07 641.101,1088.43 642.791,1097.83 644.482,1107.28 646.172,1116.76 647.862,1126.29 649.552,1135.86 651.242,1145.47 652.932,1155.13 654.622,1164.83 656.312,1174.56 658.002,1184.35 659.692,1194.17 661.382,1204.04 663.072,1213.94 664.763,1223.89 666.453,1233.89 668.143,1243.92 669.833,1254 671.523,1264.12 673.213,1274.28 674.903,1284.48 676.593,1294.73 678.283,1305.02 679.973,1315.35 681.663,1325.72 683.353,1336.14 685.044,1346.6 686.734,1357.1 688.424,1367.64 690.114,1378.22 691.804,1388.85 693.494,1399.52 695.184,1410.23 696.874,1420.98 698.564,1415.47 700.254,1405.82 701.944,1396.21 703.634,1386.64 705.324,1377.12 707.015,1367.64 708.705,1358.2 710.395,1348.81 712.085,1339.45 713.775,1330.14 715.465,1320.87 717.155,1311.64 718.845,1302.46 720.535,1293.31 722.225,1284.21 723.915,1275.15 725.605,1266.14 727.296,1257.16 728.986,1248.23 730.676,1239.34 732.366,1230.5 734.056,1221.69 735.746,1212.93 737.436,1204.21 739.126,1195.53 740.816,1186.89 742.506,1178.3 744.196,1169.75 745.886,1161.24 747.577,1152.77 749.267,1144.35 750.957,1135.97 752.647,1127.63 754.337,1119.33 756.027,1111.07 757.717,1102.86 759.407,1094.69 761.097,1086.56 762.787,1078.47 764.477,1070.43 766.167,1062.43 767.858,1054.47 769.548,1046.55 771.238,1038.67 772.928,1030.84 774.618,1023.05 776.308,1015.3 777.998,1007.59 779.688,999.93 781.378,992.309 783.068,984.729 784.758,977.192 786.448,969.697 788.139,962.244 789.829,954.833 791.519,947.465 793.209,940.139 794.899,932.855 796.589,925.613 798.279,918.414 799.969,911.257 801.659,904.142 803.349,897.07 805.039,890.039 806.729,883.051 808.42,876.105 810.11,869.202 811.8,862.341 813.49,855.522 815.18,848.745 816.87,842.01 818.56,835.318 820.25,828.668 821.94,822.06 823.63,815.495 825.32,808.971 827.01,802.49 828.701,796.052 830.391,789.655 832.081,783.301 833.771,776.989 835.461,770.719 837.151,764.492 838.841,758.306 840.531,752.163 842.221,746.063 843.911,740.004 845.601,733.988 847.291,728.014 848.981,722.082 850.672,716.193 852.362,710.345 854.052,704.54 855.742,698.778 857.432,693.057 859.122,687.379 860.812,681.743 862.502,676.149 864.192,670.598 865.882,665.089 867.572,659.622 869.262,654.197 870.953,648.815 872.643,643.474 874.333,638.176 876.023,632.921 877.713,627.707 879.403,622.536 881.093,617.407 882.783,612.32 884.473,607.276 886.163,602.274 887.853,597.314 889.543,592.396 891.234,587.521 892.924,582.688 894.614,577.897 896.304,573.148 897.994,568.442 899.684,563.777 901.374,559.156 903.064,554.576 904.754,550.039 906.444,545.543 908.134,541.09 909.824,536.68 911.515,532.311 913.205,527.985 914.895,523.701 916.585,519.46 918.275,515.26 919.965,511.103 921.655,506.988 923.345,502.916 925.035,498.885 926.725,494.897 928.415,490.951 930.105,487.048 931.796,483.186 933.486,479.367 935.176,475.59 936.866,471.856 938.556,468.164 940.246,464.513 941.936,460.906 943.626,457.34 945.316,453.817 947.006,450.336 948.696,446.897 950.386,443.5 952.077,440.146 953.767,436.834 955.457,433.564 957.147,430.336 958.837,427.151 960.527,424.008 962.217,420.907 963.907,417.849 965.597,414.832 967.287,411.858 968.977,408.926 970.667,406.037 972.358,403.19 974.048,400.385 975.738,397.622 977.428,394.901 979.118,392.223 980.808,389.587 982.498,386.993 984.188,384.442 985.878,381.932 987.568,379.465 989.258,377.041 990.948,374.658 992.638,372.318 994.329,370.02 996.019,367.764 997.709,365.55 999.399,363.379 1001.09,361.25 1002.78,359.163 1004.47,357.119 1006.16,355.117 1007.85,353.157 1009.54,351.239 1011.23,349.364 1012.92,347.53 1014.61,345.739 1016.3,343.991 1017.99,342.284 1019.68,340.62 1021.37,338.998 1023.06,337.418 1024.75,335.881 1026.44,334.385 1028.13,332.933 1029.82,331.522 1031.51,330.153 1033.2,328.827 1034.89,327.543 1036.58,326.302 1038.27,325.102 1039.96,323.945 1041.65,322.83 1043.34,321.757 1045.03,320.727 1046.72,319.739 1048.41,318.793 1050.1,317.889 1051.79,317.028 1053.48,316.208 1055.17,315.432 1056.86,314.697 1058.55,314.004 1060.24,313.354 1061.93,312.746 1063.62,312.181 1065.31,311.657 1067,311.176 1068.69,310.737 1070.38,310.341 1072.07,309.986 1073.76,309.674 1075.45,309.404 1077.14,309.177 1078.83,308.991 1080.52,308.848 1082.21,308.747 1083.9,308.689 1085.59,308.672 1087.28,308.698 1088.97,308.766 1090.66,308.877 1092.35,309.029 1094.04,309.224 1095.73,309.461 1097.42,309.741 1099.11,310.062 1100.8,310.426 1102.49,310.832 1104.18,311.281 1105.87,311.771 1107.56,312.304 1109.25,312.879 1110.94,313.497 1112.63,314.157 1114.32,314.858 1116.01,315.603 1117.7,316.389 1119.39,317.218 1121.08,318.089 1122.77,319.002 1124.46,319.957 1126.15,320.955 1127.85,321.995 1129.54,323.077 1131.23,324.202 1132.92,325.368 1134.61,326.577 1136.3,327.828 1137.99,329.122 1139.68,330.458 1141.37,331.836 1143.06,333.256 1144.75,334.718 1146.44,336.223 1148.13,337.77 1149.82,339.359 1151.51,340.991 1153.2,342.664 1154.89,344.38 1156.58,346.139 1158.27,347.939 1159.96,349.782 1161.65,351.667 1163.34,353.594 1165.03,355.564 1166.72,357.575 1168.41,359.629 1170.1,361.726 1171.79,363.864 1173.48,366.045 1175.17,368.268 1176.86,370.533 1178.55,372.841 1180.24,375.19 1181.93,377.582 1183.62,380.017 1185.31,382.493 1187,385.012 1188.69,387.573 1190.38,390.176 1192.07,392.822 1193.76,395.51 1195.45,398.24 1197.14,401.012 1198.83,403.827 1200.52,406.683 1202.21,409.582 1203.9,412.524 1205.59,415.507 1207.28,418.533 1208.97,421.601 1210.66,424.712 1212.35,427.864 1214.04,431.059 1215.73,434.296 1217.42,437.575 1219.11,440.897 1220.8,444.261 1222.49,447.667 1224.18,451.115 1225.87,454.606 1227.56,458.139 1229.25,461.714 1230.94,465.331 1232.63,468.991 1234.32,472.692 1236.01,476.437 1237.7,480.223 1239.39,484.052 1241.08,487.922 1242.77,491.836 1244.46,495.791 1246.15,499.789 1247.84,503.828 1249.53,507.911 1251.22,512.035 1252.91,516.202 1254.6,520.41 1256.29,524.662 1257.98,528.955 1259.67,533.291 1261.36,537.669 1263.05,542.089 1264.74,546.551 1266.43,551.056 1268.12,555.603 1269.81,560.192 1271.5,564.823 1273.19,569.497 1274.88,574.213 1276.57,578.971 1278.26,583.771 1279.95,588.614 1281.64,593.499 1283.33,598.426 1285.02,603.396 1286.71,608.407 1288.4,613.461 1290.09,618.557 1291.78,623.696 1293.47,628.877 1295.16,634.1 1296.85,639.365 1298.54,644.672 1300.23,650.022 1301.92,655.414 1303.61,660.848 1305.3,666.325 1306.99,671.843 1308.68,677.404 1310.37,683.007 1312.06,688.653 1313.75,694.341 1315.44,700.071 1317.13,705.843 1318.82,711.657 1320.51,717.514 1322.2,723.413 1323.89,729.354 1325.58,735.338 1327.27,741.364 1328.96,747.432 1330.65,753.542 1332.35,759.694 1334.04,765.889 1335.73,772.126 1337.42,778.405 1339.11,784.727 1340.8,791.091 1342.49,797.497 1344.18,803.945 1345.87,810.435 1347.56,816.968 1349.25,823.543 1350.94,830.161 1352.63,836.82 1354.32,843.522 1356.01,850.266 1357.7,857.052 1359.39,863.881 1361.08,870.752 1362.77,877.665 1364.46,884.62 1366.15,891.617 1367.84,898.657 1369.53,905.739 1371.22,912.864 1372.91,920.03 1374.6,927.239 1376.29,934.49 1377.98,941.783 1379.67,949.119 1381.36,956.497 1383.05,963.917 1384.74,971.379 1386.43,978.884 1388.12,986.431 1389.81,994.02 1391.5,1001.65 1393.19,1009.32 1394.88,1017.04 1396.57,1024.8 1398.26,1032.6 1399.95,1040.44 1401.64,1048.33 1403.33,1056.25 1405.02,1064.22 1406.71,1072.23 1408.4,1080.29 1410.09,1088.38 1411.78,1096.52 1413.47,1104.7 1415.16,1112.93 1416.85,1121.19 1418.54,1129.5 1420.23,1137.85 1421.92,1146.24 1423.61,1154.67 1425.3,1163.15 1426.99,1171.67 1428.68,1180.23 1430.37,1188.83 1432.06,1197.48 1433.75,1206.17 1435.44,1214.9 1437.13,1223.67 1438.82,1232.48 1440.51,1241.34 1442.2,1250.24 1443.89,1259.18 1445.58,1268.16 1447.27,1277.19 1448.96,1286.26 1450.65,1295.37 1452.34,1304.52 1454.03,1313.71 1455.72,1322.95 1457.41,1332.23 1459.1,1341.55 1460.79,1350.92 1462.48,1360.32 1464.17,1369.77 1465.86,1379.26 1467.55,1388.79 1469.24,1398.37 1470.93,1407.99 1472.62,1417.64 1474.31,1419.44 1476,1410.74 1477.69,1402.09 1479.38,1393.48 1481.07,1384.91 1482.76,1376.38 1484.45,1367.9 1486.14,1359.46 1487.83,1351.06 1489.52,1342.7 1491.21,1334.39 1492.9,1326.12 1494.59,1317.89 1496.28,1309.7 1497.97,1301.55 1499.66,1293.45 1501.35,1285.39 1503.04,1277.37 1504.73,1269.39 1506.42,1261.46 1508.11,1253.57 1509.8,1245.72 1511.49,1237.91 1513.18,1230.14 1514.87,1222.42 1516.56,1214.74 1518.25,1207.1 1519.94,1199.5 1521.63,1191.95 1523.32,1184.44 1525.01,1176.97 1526.7,1169.54 1528.39,1162.15 1530.08,1154.81 1531.77,1147.51 1533.46,1140.25 1535.15,1133.04 1536.85,1125.86 1538.54,1118.73 1540.23,1111.64 1541.92,1104.59 1543.61,1097.59 1545.3,1090.63 1546.99,1083.71 1548.68,1076.83 1550.37,1069.99 1552.06,1063.2 1553.75,1056.45 1555.44,1049.74 1557.13,1043.07 1558.82,1036.45 1560.51,1029.86 1562.2,1023.32 1563.89,1016.83 1565.58,1010.37 1567.27,1003.96 1568.96,997.586 1570.65,991.257 1572.34,984.971 1574.03,978.726 1575.72,972.524 1577.41,966.364 1579.1,960.247 1580.79,954.171 1582.48,948.138 1584.17,942.147 1585.86,936.199 1587.55,930.292 1589.24,924.428 1590.93,918.607 1592.62,912.827 1594.31,907.09 1596,901.395 1597.69,895.742 1599.38,890.131 1601.07,884.563 1602.76,879.037 1604.45,873.553 1606.14,868.112 1607.83,862.712 1609.52,857.355 1611.21,852.04 1612.9,846.768 1614.59,841.538 1616.28,836.349 1617.97,831.204 1619.66,826.1 1621.35,821.039 1623.04,816.02 1624.73,811.043 1626.42,806.109 1628.11,801.216 1629.8,796.366 1631.49,791.559 1633.18,786.793 1634.87,782.07 1636.56,777.389 1638.25,772.75 1639.94,768.153 1641.63,763.599 1643.32,759.087 1645.01,754.618 1646.7,750.19 1648.39,745.805 1650.08,741.462 1651.77,737.161 1653.46,732.903 1655.15,728.686 1656.84,724.512 1658.53,720.381 1660.22,716.291 1661.91,712.244 1663.6,708.239 1665.29,704.276 1666.98,700.356 1668.67,696.478 1670.36,692.642 1672.05,688.848 1673.74,685.097 1675.43,681.387 1677.12,677.72 1678.81,674.096 1680.5,670.513 1682.19,666.973 1683.88,663.475 1685.57,660.019 1687.26,656.606 1688.95,653.235 1690.64,649.906 1692.33,646.619 1694.02,643.375 1695.71,640.173 1697.4,637.013 1699.09,633.895 1700.78,630.82 1702.47,627.787 1704.16,624.796 1705.85,621.847 1707.54,618.941 1709.23,616.076 1710.92,613.255 1712.61,610.475 1714.3,607.738 1715.99,605.042 1717.68,602.389 1719.37,599.779 1721.06,597.21 1722.75,594.684 1724.44,592.2 1726.13,589.759 1727.82,587.36 1729.51,585.002 1731.2,582.688 1732.89,580.415 1734.58,578.185 1736.27,575.996 1737.96,573.851 1739.65,571.747 1741.34,569.686 1743.04,567.667 1744.73,565.69 1746.42,563.755 1748.11,561.863 1749.8,560.013 1751.49,558.205 1753.18,556.439 1754.87,554.716 1756.56,553.035 1758.25,551.396 1759.94,549.8 1761.63,548.245 1763.32,546.733 1765.01,545.263 1766.7,543.836 1768.39,542.45 1770.08,541.107 1771.77,539.807 1773.46,538.548 1775.15,537.332 1776.84,536.158 1778.53,535.026 1780.22,533.936 1781.91,532.889 1783.6,531.884 1785.29,530.921 1786.98,530.001 1788.67,529.123 1790.36,528.287 1792.05,527.493 1793.74,526.741 1795.43,526.032 1797.12,525.365 1798.81,524.74 1800.5,524.158 1802.19,523.617 1803.88,523.119 1805.57,522.664 1807.26,522.25 1808.95,521.879 1810.64,521.55 1812.33,521.263 1814.02,521.019 1815.71,520.817 1817.4,520.657 1819.09,520.539 1820.78,520.463 1822.47,520.43 1824.16,520.439 1825.85,520.49 1827.54,520.584 1829.23,520.72 1830.92,520.898 1832.61,521.118 1834.3,521.381 1835.99,521.685 1837.68,522.033 1839.37,522.422 1841.06,522.853 1842.75,523.327 1844.44,523.843 1846.13,524.402 1847.82,525.002 1849.51,525.645 1851.2,526.33 1852.89,527.057 1854.58,527.827 1856.27,528.639 1857.96,529.493 1859.65,530.389 1861.34,531.328 1863.03,532.309 1864.72,533.332 1866.41,534.397 1868.1,535.505 1869.79,536.654 1871.48,537.847 1873.17,539.081 1874.86,540.358 1876.55,541.676 1878.24,543.038 1879.93,544.441 1881.62,545.887 1883.31,547.374 1885,548.905 1886.69,550.477 1888.38,552.092 1890.07,553.748 1891.76,555.448 1893.45,557.189 1895.14,558.973 1896.83,560.798 1898.52,562.667 1900.21,564.577 1901.9,566.53 1903.59,568.525 1905.28,570.562 1906.97,572.641 1908.66,574.763 1910.35,576.927 1912.04,579.133 1913.73,581.381 1915.42,583.672 1917.11,586.005 1918.8,588.38 1920.49,590.797 1922.18,593.257 1923.87,595.759 1925.56,598.303 1927.25,600.89 1928.94,603.518 1930.63,606.189 1932.32,608.903 1934.01,611.658 1935.7,614.456 1937.39,617.296 1939.08,620.178 1940.77,623.102 1942.46,626.069 1944.15,629.078 1945.84,632.129 1947.54,635.223 1949.23,638.358 1950.92,641.536 1952.61,644.757 1954.3,648.019 "/>
<path clip-path="url(#clip812)" d="M1954.3 1423.18 L2291.97 1423.18 L2291.97 47.2441 L1954.3 47.2441 L1954.3 1423.18  Z" fill="#ff0000" fill-rule="evenodd" fill-opacity="1"/>
<polyline clip-path="url(#clip812)" style="stroke:#000000; stroke-linecap:round; stroke-linejoin:round; stroke-width:4; stroke-opacity:1; fill:none" points="1954.3,1423.18 2291.97,1423.18 2291.97,47.2441 1954.3,47.2441 1954.3,1423.18 "/>
<path clip-path="url(#clip812)" d="M1954.3 695.212 L1944.9 722.252 L1916.26 722.852 L1939.1 740.172 L1930.78 767.572 L1954.3 751.212 L1977.82 767.572 L1969.5 740.172 L1992.34 722.852 L1963.7 722.252 L1954.3 695.212 Z" fill="#008000" fill-rule="evenodd" fill-opacity="1" stroke="#000000" stroke-opacity="1" stroke-width="3.2"/>
</svg>
